<svg viewBox="0 0 52 52" xmlns="http://www.w3.org/2000/svg">
    <path
        d="M2 0.125C0.964466 0.125 0.125 0.964466 0.125 2C0.125 3.03553 0.964466 3.875 2 3.875L2 0.125ZM8.66667 2L10.4857 1.54525C10.277 0.710558 9.52704 0.125 8.66667 0.125L8.66667 2ZM44.6667 38.5417C45.7022 38.5417 46.5417 37.7022 46.5417 36.6667C46.5417 35.6311 45.7022 34.7917 44.6667 34.7917V38.5417ZM50 7.33333L51.819 7.78809C51.959 7.22795 51.8332 6.63453 51.4779 6.17944C51.1226 5.72434 50.5774 5.45833 50 5.45833V7.33333ZM44.6667 28.6667V30.5417C45.527 30.5417 46.277 29.9561 46.4857 29.1214L44.6667 28.6667ZM2 3.875L8.66667 3.875L8.66667 0.125L2 0.125L2 3.875ZM6.84765 2.45475L8.18098 7.78809L11.819 6.87858L10.4857 1.54525L6.84765 2.45475ZM8.18098 7.78809L13.5143 29.1214L17.1523 28.2119L11.819 6.87858L8.18098 7.78809ZM15.3333 26.7917H14V30.5417H15.3333V26.7917ZM14 38.5417H44.6667V34.7917H14V38.5417ZM8.125 32.6667C8.125 35.9113 10.7553 38.5417 14 38.5417V34.7917C12.8264 34.7917 11.875 33.8403 11.875 32.6667H8.125ZM14 26.7917C10.7553 26.7917 8.125 29.422 8.125 32.6667H11.875C11.875 31.4931 12.8264 30.5417 14 30.5417V26.7917ZM10 9.20833H50V5.45833H10V9.20833ZM48.181 6.87858L42.8476 28.2119L46.4857 29.1214L51.819 7.78809L48.181 6.87858ZM44.6667 26.7917H15.3333V30.5417H44.6667V26.7917ZM42.7917 47.3333C42.7917 47.7706 42.4372 48.125 42 48.125V51.875C44.5083 51.875 46.5417 49.8416 46.5417 47.3333H42.7917ZM42 48.125C41.5628 48.125 41.2083 47.7706 41.2083 47.3333H37.4583C37.4583 49.8416 39.4917 51.875 42 51.875V48.125ZM41.2083 47.3333C41.2083 46.8961 41.5628 46.5417 42 46.5417V42.7917C39.4917 42.7917 37.4583 44.825 37.4583 47.3333H41.2083ZM42 46.5417C42.4372 46.5417 42.7917 46.8961 42.7917 47.3333H46.5417C46.5417 44.825 44.5083 42.7917 42 42.7917V46.5417ZM16.125 47.3333C16.125 47.7706 15.7706 48.125 15.3333 48.125V51.875C17.8416 51.875 19.875 49.8416 19.875 47.3333H16.125ZM15.3333 48.125C14.8961 48.125 14.5417 47.7706 14.5417 47.3333H10.7917C10.7917 49.8416 12.825 51.875 15.3333 51.875V48.125ZM14.5417 47.3333C14.5417 46.8961 14.8961 46.5417 15.3333 46.5417V42.7917C12.825 42.7917 10.7917 44.825 10.7917 47.3333H14.5417ZM15.3333 46.5417C15.7706 46.5417 16.125 46.8961 16.125 47.3333H19.875C19.875 44.825 17.8416 42.7917 15.3333 42.7917V46.5417Z" />
</svg>