<svg xmlns="http://www.w3.org/2000/svg">
    <path
        d="M10.7602 20.5999C5.45822 20.5999 1.16016 16.3018 1.16016 10.9999C1.16016 5.69797 5.45822 1.3999 10.7602 1.3999C14.789 1.3999 18.2382 3.88171 19.6623 7.3999M2.36016 14.5999H5.16016C6.26473 14.5999 7.16016 13.7045 7.16016 12.5999V9.9999C7.16016 8.89533 8.05559 7.9999 9.16016 7.9999H11.1602C12.2647 7.9999 13.1602 7.10447 13.1602 5.9999V2.5999M17.0002 14.8399V14.7677M20.8402 14.7564C20.8402 17.2608 17.0002 20.5999 17.0002 20.5999C17.0002 20.5999 13.1602 17.2608 13.1602 14.7564C13.1602 12.6818 14.8794 10.9999 17.0002 10.9999C19.1209 10.9999 20.8402 12.6818 20.8402 14.7564Z"
        stroke-width="2" stroke-linecap="round" stroke-linejoin="round" />
</svg>