<svg viewBox="0 0 28 28" xmlns="http://www.w3.org/2000/svg">
    <path
        d="M14 0C21.7194 0 28 6.28062 28 14C28 21.7194 21.7194 28 14 28C6.28061 28 -1.90735e-06 21.7194 -1.90735e-06 14C-1.90735e-06 6.28062 6.28061 0 14 0ZM14 2.15385C7.44477 2.15385 2.15384 7.44477 2.15384 14C2.15384 20.5552 7.44477 25.8462 14 25.8462C20.5552 25.8462 25.8462 20.5552 25.8462 14C25.8462 7.44477 20.5552 2.15385 14 2.15385ZM14.7754 7.10123L20.8977 13.2246L21.6731 14L20.8977 14.7754L14.7732 20.8988L13.2246 19.3846L17.5323 15.0769H6.46154V12.9231H17.5323L13.2246 8.61539L14.7754 7.10123Z"
        />
</svg>