<svg id="search" viewBox="0 0 30 30" xmlns="http://www.w3.org/2000/svg">
      <path fill-rule="evenodd" clip-rule="evenodd"
        d="M22.4697 12.8393C22.4697 14.1039 22.2206 15.3562 21.7365 16.5246C21.2526 17.6931 20.5432 18.7547 19.649 19.649C18.7547 20.5431 17.6931 21.2526 16.5246 21.7367C15.3562 22.2205 14.1039 22.4696 12.8393 22.4696C11.5746 22.4696 10.3223 22.2205 9.15386 21.7367C7.98546 21.2526 6.92381 20.5431 6.02955 19.649C5.13527 18.7547 4.42592 17.6931 3.94194 16.5246C3.45796 15.3562 3.20887 14.1039 3.20887 12.8393C3.20887 10.2851 4.22349 7.83559 6.02955 6.02955C7.83559 4.22349 10.2851 3.20887 12.8393 3.20887C15.3934 3.20887 17.8429 4.22349 19.649 6.02955C21.4551 7.83559 22.4697 10.2851 22.4697 12.8393ZM20.7148 22.9833C18.1346 24.9864 14.8881 25.9308 11.6361 25.6243C8.38409 25.3181 5.37109 23.7839 3.21048 21.3341C1.04985 18.8844 -0.0959539 15.7033 0.00629934 12.4385C0.108574 9.17372 1.45122 6.0706 3.76091 3.76091C6.07062 1.45122 9.17372 0.108575 12.4385 0.00630007C15.7033 -0.0959596 18.8844 1.04985 21.3341 3.21048C23.7839 5.37109 25.3181 8.38409 25.6244 11.6361C25.9308 14.8881 24.9864 18.1346 22.9833 20.7148L29.4891 27.2206C29.6469 27.3677 29.7733 27.5449 29.8611 27.7417C29.9488 27.9386 29.9959 28.1511 29.9998 28.3666C30.0036 28.5822 29.9638 28.7962 29.8831 28.996C29.8025 29.1959 29.6822 29.3774 29.5298 29.5298C29.3774 29.6824 29.196 29.8024 28.9961 29.8831C28.7962 29.9638 28.5822 30.0036 28.3667 29.9997C28.1512 29.9959 27.9384 29.9488 27.7418 29.8611C27.5449 29.7733 27.3677 29.6468 27.2207 29.4891L20.7148 22.9833Z" />
    </svg>