<svg viewBox="0 0 21 15" class="footer-icon" xmlns="http://www.w3.org/2000/svg">
    <path
        d="M8.5 10.5L13.69 7.5L8.5 4.5V10.5ZM20.06 2.67C20.19 3.14 20.28 3.77 20.34 4.57C20.41 5.37 20.44 6.06 20.44 6.66L20.5 7.5C20.5 9.69 20.34 11.3 20.06 12.33C19.81 13.23 19.23 13.81 18.33 14.06C17.86 14.19 17 14.28 15.68 14.34C14.38 14.41 13.19 14.44 12.09 14.44L10.5 14.5C6.31 14.5 3.7 14.34 2.67 14.06C1.77 13.81 1.19 13.23 0.94 12.33C0.81 11.86 0.72 11.23 0.66 10.43C0.59 9.63 0.56 8.94 0.56 8.34L0.5 7.5C0.5 5.31 0.66 3.7 0.94 2.67C1.19 1.77 1.77 1.19 2.67 0.94C3.14 0.81 4 0.72 5.32 0.66C6.62 0.59 7.81 0.56 8.91 0.56L10.5 0.5C14.69 0.5 17.3 0.66 18.33 0.94C19.23 1.19 19.81 1.77 20.06 2.67Z" />
</svg>